Coordinates
version=1
nRows=30
nColumns=38
inDegrees=no

Units are S.I. units (second, meters, Newtons, ...)
If the header above contains a line with 'inDegrees', this indicates whether rotational values are in degrees (yes) or radians (no).

endheader
time	pelvis_tilt	pelvis_list	pelvis_rotation	pelvis_tx	pelvis_ty	pelvis_tz	hip_flexion_r	hip_adduction_r	hip_rotation_r	knee_angle_r	ankle_angle_r	subtalar_angle_r	mtp_angle_r	hip_flexion_l	hip_adduction_l	hip_rotation_l	knee_angle_l	ankle_angle_l	subtalar_angle_l	mtp_angle_l	lumbar_extension	lumbar_bending	lumbar_rotation	arm_flex_r	arm_add_r	arm_rot_r	elbow_flex_r	pro_sup_r	wrist_flex_r	wrist_dev_r	arm_flex_l	arm_add_l	arm_rot_l	elbow_flex_l	pro_sup_l	wrist_flex_l	wrist_dev_l
1.4	-0.439046	-0.0635794	0.0451924	0.6982	0.929335	-0.337703	0.913058	-0.141906	-0.187304	-2.2259	0.256253	0.0999995	0.0182342	0.84362	-0.0885269	-0.165717	-0.95088	0.689021	0.0999997	0.0688765	0.193806	-0.0193718	-0.179848	-0.339598	-0.350429	0.0973055	1.02707	1.49469	0.0999999	0.0289822	-0.106208	-0.780248	0.39844	1.72962	1.4257	0.0999997	-0.0276507
1.41	-0.443556	-0.0706806	0.0352532	0.695893	0.930707	-0.337505	1.00045	-0.123808	-0.175004	-2.2212	0.261201	0.0999995	0.0182342	0.787591	-0.105236	-0.170806	-0.94489	0.703082	0.0999997	0.0688765	0.194782	-0.00509771	-0.194379	-0.362026	-0.354947	0.094385	1.02354	1.48872	0.0999999	0.0289822	-0.0536542	-0.768402	0.389209	1.7516	1.44122	0.0999997	-0.0276507
1.42	-0.444028	-0.0783559	0.0236859	0.694651	0.934084	-0.337259	1.07615	-0.103601	-0.165711	-2.19637	0.268875	0.0999995	0.0182342	0.718444	-0.123504	-0.183724	-0.920437	0.69533	0.0999997	0.0688765	0.192917	0.011146	-0.207358	-0.38552	-0.361418	0.0930446	1.02809	1.47701	0.0999999	0.0289822	-0.00911537	-0.753167	0.372538	1.77826	1.45075	0.0999997	-0.0276507
1.43	-0.441118	-0.0865893	0.0111826	0.69455	0.939236	-0.337015	1.13889	-0.0824561	-0.15999	-2.15249	0.278854	0.0999995	0.0182342	0.639163	-0.142475	-0.203719	-0.880749	0.664517	0.0999997	0.0688765	0.189109	0.0290944	-0.219217	-0.40995	-0.369791	0.0929568	1.03909	1.46294	0.0999999	0.0289822	0.0274072	-0.735466	0.350939	1.80961	1.45278	0.0999997	-0.0276507
1.44	-0.436017	-0.095226	-0.00157105	0.695539	0.945803	-0.336795	1.18854	-0.0614837	-0.157938	-2.09104	0.290439	0.0999995	0.0182342	0.553773	-0.161173	-0.229303	-0.830065	0.611398	0.0999997	0.0688765	0.184714	0.0482827	-0.230345	-0.435237	-0.379741	0.0932956	1.0548	1.44981	0.0999999	0.0289822	0.0565039	-0.716414	0.32743	1.84526	1.44704	0.0999997	-0.0276507
1.45	-0.43023	-0.103901	-0.0139663	0.697477	0.953309	-0.336616	1.22593	-0.0416536	-0.159204	-2.01362	0.302813	0.0999995	0.0182342	0.466873	-0.178577	-0.258379	-0.773375	0.538864	0.0999997	0.0688765	0.181269	0.0680336	-0.241007	-0.46135	-0.390707	0.0929127	1.07359	1.44009	0.0999999	0.0289822	0.0791894	-0.697227	0.305085	1.88453	1.43472	0.0999997	-0.0276507
1.46	-0.425287	-0.112032	-0.0254995	0.700131	0.961209	-0.33651	1.25245	-0.023768	-0.163099	-1.92175	0.315208	0.0999995	0.0182342	0.383099	-0.193685	-0.288444	-0.716094	0.451835	0.0999997	0.0688765	0.180183	0.0874642	-0.251319	-0.488234	-0.401957	0.0905782	1.09409	1.43497	0.0999999	0.0289822	0.0967021	-0.679095	0.286632	1.92644	1.4183	0.0999997	-0.0276507
1.47	-0.42245	-0.118867	-0.0357635	0.70321	0.96898	-0.33651	1.26965	-0.00844737	-0.168804	-1.81675	0.327071	0.0999995	0.0182342	0.306575	-0.205585	-0.316841	-0.663694	0.356902	0.0999997	0.0688765	0.182449	0.105548	-0.261269	-0.515728	-0.412665	0.0852214	1.11526	1.43431	0.0999999	0.0289822	0.1103	-0.663042	0.274175	1.96972	1.40098	0.0999997	-0.0276507
1.48	-0.422453	-0.123603	-0.0444318	0.706404	0.976197	-0.336646	1.27881	0.00388863	-0.1756	-1.6997	0.338209	0.0999995	0.0182342	0.240414	-0.213565	-0.341093	-0.621258	0.261551	0.0999997	0.0688765	0.188431	0.121235	-0.270746	-0.543493	-0.421996	0.07613	1.13632	1.4369	0.0999999	0.0289822	0.121073	-0.649797	0.269051	2.01286	1.38591	0.0999997	-0.0276507
1.49	-0.425362	-0.125545	-0.0512537	0.709451	0.982567	-0.336954	1.2807	0.0130384	-0.183113	-1.57166	0.348847	0.0999995	0.0182342	0.186381	-0.217245	-0.359273	-0.593043	0.173061	0.0999997	0.0688765	0.197775	0.133616	-0.279571	-0.570978	-0.429207	0.0630739	1.15663	1.44081	0.0999999	0.0289822	0.129788	-0.639705	0.271791	2.0541	1.3755	0.0999997	-0.0276507
1.5	-0.430566	-0.124253	-0.0560669	0.712187	0.987932	-0.33746	1.27555	0.0190106	-0.191466	-1.43387	0.35956	0.0999995	0.0182342	0.144803	-0.216679	-0.370331	-0.582133	0.0972616	0.0999997	0.0688765	0.209473	0.142081	-0.287518	-0.597448	-0.433736	0.0463437	1.1756	1.44395	0.0999999	0.0289822	0.136791	-0.632696	0.282162	2.09148	1.37099	0.0999997	-0.0276507
1.51	-0.436947	-0.119627	-0.0588287	0.714573	0.992253	-0.338169	1.26324	0.0219796	-0.201259	-1.28824	0.371044	0.0999995	0.0182342	0.114762	-0.212331	-0.374188	-0.590225	0.037562	0.0999997	0.0688765	0.222079	0.1464	-0.294324	-0.62204	-0.435295	0.0266972	1.19267	1.44452	0.0999999	0.0289822	0.141982	-0.628323	0.299277	2.12302	1.37226	0.0999997	-0.0276507
1.52	-0.443161	-0.111884	-0.0596548	0.716659	0.995568	-0.339057	1.24373	0.0222195	-0.213358	-1.13765	0.383808	0.0999995	0.0182342	0.0945277	-0.204959	-0.371651	-0.617665	-0.00524194	0.0999997	0.0688765	0.234028	0.146721	-0.299695	-0.643861	-0.433912	0.00523746	1.20729	1.44145	0.0999999	0.0289822	0.144877	-0.625862	0.321739	2.14678	1.378	0.0999997	-0.0276507
1.53	-0.447968	-0.101459	-0.0588453	0.71854	0.997914	-0.340088	1.21744	0.0200473	-0.228564	-0.986171	0.397907	0.0999995	0.0182342	0.0820739	-0.195442	-0.364103	-0.663636	-0.0324476	0.0999997	0.0688765	0.243959	0.143508	-0.303302	-0.662079	-0.429951	-0.0167416	1.21901	1.43456	0.0999999	0.0289822	0.144731	-0.624439	0.347813	2.16113	1.38616	0.0999997	-0.0276507
1.54	-0.450493	-0.088904	-0.0568866	0.720315	0.999304	-0.341235	1.18553	0.0158184	-0.247219	-0.839065	0.412769	0.0999995	0.0182342	0.0755424	-0.184644	-0.353208	-0.726464	-0.0465156	0.0999997	0.0688765	0.250953	0.137455	-0.304784	-0.675995	-0.424071	-0.037906	1.22752	1.42454	0.0999999	0.0289822	0.140709	-0.623172	0.375602	2.16482	1.39448	0.0999997	-0.0276507
1.55	-0.450365	-0.074847	-0.0544152	0.722043	0.999748	-0.342462	1.1499	0.00995869	-0.268913	-0.702347	0.427175	0.0999995	0.0182342	0.0735499	-0.173349	-0.340597	-0.803945	-0.0502209	0.0999997	0.0688765	0.254627	0.129417	-0.303787	-0.685065	-0.41715	-0.0569954	1.23275	1.41272	0.0999999	0.0289822	0.132054	-0.621288	0.403203	2.15715	1.40115	0.0999997	-0.0276507
1.56	-0.447706	-0.0599872	-0.0521357	0.723731	0.999262	-0.343717	1.11293	0.00301655	-0.292366	-0.582104	0.439447	0.0999995	0.0182342	0.0753355	-0.162289	-0.327612	-0.893666	-0.0461392	0.0999997	0.0688765	0.255103	0.120358	-0.300022	-0.688893	-0.410186	-0.0728951	1.23485	1.40066	0.0999999	0.0289822	0.118244	-0.618203	0.428854	2.13794	1.40528	0.0999997	-0.0276507
1.57	-0.443025	-0.0451091	-0.0507155	0.725342	0.997879	-0.344919	1.07706	-0.00428095	-0.31551	-0.483658	0.44786	0.0999995	0.0182342	0.0807764	-0.152223	-0.315178	-0.993294	-0.0364425	0.0999997	0.0688765	0.252876	0.111317	-0.293333	-0.687208	-0.404166	-0.0846917	1.23419	1.38982	0.0999999	0.0289822	0.0991058	-0.613562	0.451083	2.1075	1.40701	0.0999997	-0.0276507
1.58	-0.437065	-0.0310846	-0.0506811	0.726788	0.995628	-0.345962	1.04433	-0.0110359	-0.335853	-0.410813	0.451213	0.0999995	0.0182342	0.0903022	-0.143984	-0.303714	-1.10077	-0.0228822	0.0999997	0.0688765	0.248632	0.103347	-0.283723	-0.679838	-0.399936	-0.0917315	1.23135	1.38125	0.0999999	0.0289822	0.0748886	-0.607232	0.468837	2.06651	1.40733	0.0999997	-0.0276507
1.59	-0.43063	-0.0188372	-0.0523496	0.727954	0.992536	-0.346731	1.01607	-0.0162266	-0.350912	-0.365415	0.44939	0.0999995	0.0182342	0.104737	-0.138467	-0.293147	-1.21436	-0.00682462	0.0999997	0.0688765	0.243057	0.0974435	-0.271344	-0.666708	-0.398097	-0.0936908	1.22705	1.3755	0.0999999	0.0289822	0.0462697	-0.59929	0.48157	2.01591	1.40773	0.0999997	-0.0276507
1.6	-0.424436	-0.00924599	-0.0557996	0.728719	0.988617	-0.347127	0.992795	-0.0188117	-0.358646	-0.347326	0.443727	0.0999995	0.0182342	0.125116	-0.136549	-0.283004	-1.33261	0.0106908	0.0999997	0.0688765	0.23669	0.0944598	-0.256452	-0.64783	-0.39892	-0.0906311	1.22209	1.37268	0.0999999	0.0289822	0.0142792	-0.589978	0.489247	1.95679	1.40975	0.0999997	-0.0276507
1.61	-0.41901	-0.00302866	-0.0608907	0.728995	0.983874	-0.347094	0.974304	-0.0179238	-0.357906	-0.354734	0.437076	0.0999995	0.0182342	0.152536	-0.1389	-0.272501	-1.45416	0.028824	0.0999997	0.0688765	0.229871	0.0949903	-0.239344	-0.623299	-0.402335	-0.0830106	1.21731	1.37255	0.0999999	0.0289822	-0.0198562	-0.579672	0.492246	1.8904	1.41477	0.0999997	-0.0276507
1.62	-0.414689	-0.000607493	-0.0673079	0.728713	0.978314	-0.34664	0.959905	-0.0130738	-0.348675	-0.384576	0.433439	0.0999995	0.0182342	0.188044	-0.145785	-0.260706	-1.57754	0.0468651	0.0999997	0.0688765	0.222768	0.0992532	-0.220328	-0.593285	-0.407955	-0.0716288	1.21351	1.37476	0.0999999	0.0289822	-0.0549252	-0.568841	0.491204	1.8182	1.42385	0.0999997	-0.0276507
1.63	-0.411686	-0.00196932	-0.0746062	0.727841	0.97198	-0.345841	0.948594	-0.00432275	-0.332129	-0.432826	0.437172	0.0999995	0.0182342	0.232568	-0.156872	-0.2467	-1.70096	0.0641959	0.0999997	0.0688765	0.215483	0.106996	-0.199708	-0.558015	-0.415154	-0.057513	1.21136	1.37898	0.0999999	0.0289822	-0.0899527	-0.558018	0.486838	1.74192	1.43764	0.0999997	-0.0276507
1.64	-0.410118	-0.00661404	-0.0822697	0.726342	0.965058	-0.344831	0.939153	0.00765599	-0.310307	-0.494622	0.451895	0.0999995	0.0182342	0.28683	-0.171135	-0.229792	-1.82217	0.0803957	0.0999997	0.0688765	0.208179	0.117442	-0.177792	-0.517795	-0.423156	-0.0417814	1.21136	1.38505	0.0999999	0.0289822	-0.124379	-0.547776	0.479846	1.66371	1.45625	0.0999997	-0.0276507
1.65	-0.410039	-0.0135725	-0.0897744	0.724195	0.95795	-0.343767	0.93011	0.0216021	-0.285704	-0.564368	0.479476	0.0999995	0.0182342	0.351168	-0.186902	-0.209727	-1.93838	0.0953328	0.0999997	0.0688765	0.201136	0.129314	-0.154902	-0.473053	-0.431136	-0.0255299	1.21384	1.393	0.0999999	0.0289822	-0.158148	-0.538704	0.470874	1.5861	1.47905	0.0999997	-0.0276507
1.66	-0.411393	-0.0214899	-0.0966307	0.721464	0.951186	-0.342783	0.919699	0.0357956	-0.260824	-0.63602	0.519448	0.0999995	0.0182342	0.425286	-0.202039	-0.186862	-2.04633	0.109174	0.0999997	0.0688765	0.194724	0.140961	-0.131366	-0.424435	-0.438292	-0.00977704	1.21899	1.40303	0.0999999	0.0289822	-0.191698	-0.531387	0.460563	1.51204	1.50452	0.0999997	-0.0276507
1.67	-0.413961	-0.0287936	-0.102421	0.718301	0.945245	-0.34195	0.905902	0.0482849	-0.237701	-0.703567	0.569001	0.0999995	0.0182342	0.508044	-0.214265	-0.162252	-2.14244	0.122314	0.0999997	0.0688765	0.189324	0.150541	-0.107494	-0.3729	-0.443905	0.00453706	1.22702	1.41541	0.0999999	0.0289822	-0.225833	-0.526397	0.449609	1.44464	1.53023	0.0999997	-0.0276507
1.68	-0.417347	-0.0339066	-0.106827	0.714898	0.940468	-0.341276	0.886641	0.0571407	-0.217703	-0.761654	0.623467	0.0999995	0.0182342	0.597389	-0.221516	-0.137582	-2.2231	0.13519	0.0999997	0.0688765	0.185246	0.156262	-0.0835442	-0.31978	-0.447377	0.0165343	1.23824	1.43049	0.0999999	0.0289822	-0.261537	-0.524259	0.438771	1.38695	1.55312	0.0999997	-0.0276507
1.69	-0.421042	-0.0355044	-0.10964	0.711498	0.937092	-0.340744	0.860087	0.0607242	-0.201558	-0.806142	0.677032	0.0999995	0.0182342	0.690497	-0.222295	-0.114909	-2.28505	0.148063	0.0999997	0.0688765	0.182697	0.156631	-0.0597007	-0.266766	-0.44827	0.0254138	1.25318	1.44845	0.0999999	0.0289822	-0.299758	-0.52539	0.428801	1.34155	1.56994	0.0999997	-0.0276507
